<svg width="360" height="119" viewBox="0 0 360 119" fill="none" xmlns="http://www.w3.org/2000/svg">
<rect width="360" height="119" fill="#D9D9D9"/>
<path d="M102.29 79.358C100.602 79.358 99.0978 79.0682 97.7768 78.4886C96.4643 77.9091 95.4203 77.1037 94.6447 76.0724C93.8776 75.0327 93.46 73.8267 93.3918 72.4545H96.6134C96.6816 73.2983 96.9714 74.027 97.4828 74.6406C97.9941 75.2457 98.6632 75.7145 99.4899 76.0469C100.317 76.3793 101.233 76.5455 102.238 76.5455C103.363 76.5455 104.361 76.3494 105.23 75.9574C106.099 75.5653 106.781 75.0199 107.275 74.321C107.77 73.6222 108.017 72.8125 108.017 71.892C108.017 70.929 107.778 70.081 107.301 69.348C106.824 68.6065 106.125 68.027 105.204 67.6094C104.284 67.1918 103.159 66.983 101.829 66.983H99.7328V64.1705H101.829C102.869 64.1705 103.781 63.983 104.565 63.608C105.358 63.233 105.976 62.7045 106.419 62.0227C106.871 61.3409 107.096 60.5398 107.096 59.6193C107.096 58.733 106.9 57.9616 106.508 57.3054C106.116 56.6491 105.562 56.1378 104.846 55.7713C104.139 55.4048 103.304 55.2216 102.341 55.2216C101.437 55.2216 100.585 55.3878 99.7839 55.7202C98.9913 56.044 98.3436 56.517 97.8407 57.1392C97.3379 57.7528 97.0651 58.4943 97.0225 59.3636H93.9543C94.0055 57.9915 94.4188 56.7898 95.1944 55.7585C95.97 54.7187 96.9842 53.9091 98.237 53.3295C99.4984 52.75 100.883 52.4602 102.392 52.4602C104.011 52.4602 105.4 52.7884 106.559 53.4446C107.719 54.0923 108.609 54.9489 109.231 56.0142C109.853 57.0795 110.165 58.2301 110.165 59.4659C110.165 60.9403 109.777 62.1974 109.001 63.2372C108.234 64.277 107.19 64.9972 105.869 65.3977V65.6023C107.523 65.875 108.814 66.5781 109.743 67.7116C110.672 68.8366 111.136 70.2301 111.136 71.892C111.136 73.3153 110.748 74.5938 109.973 75.7273C109.206 76.8523 108.157 77.7386 106.828 78.3864C105.498 79.0341 103.986 79.358 102.29 79.358ZM125.058 79.358C123.984 79.3409 122.91 79.1364 121.836 78.7443C120.763 78.3523 119.782 77.6918 118.896 76.7628C118.01 75.8253 117.298 74.5597 116.761 72.9659C116.224 71.3636 115.956 69.3523 115.956 66.9318C115.956 64.6136 116.173 62.5597 116.608 60.7699C117.042 58.9716 117.673 57.4588 118.5 56.2315C119.327 54.9957 120.324 54.0582 121.491 53.419C122.667 52.7798 123.993 52.4602 125.467 52.4602C126.933 52.4602 128.237 52.7543 129.379 53.3423C130.53 53.9219 131.467 54.7315 132.192 55.7713C132.916 56.8111 133.385 58.0085 133.598 59.3636H130.478C130.189 58.1875 129.626 57.2116 128.791 56.4361C127.956 55.6605 126.848 55.2727 125.467 55.2727C123.439 55.2727 121.841 56.1548 120.673 57.919C119.514 59.6832 118.93 62.1591 118.922 65.3466H119.126C119.603 64.6222 120.17 64.0043 120.827 63.4929C121.491 62.973 122.224 62.5724 123.025 62.2912C123.827 62.0099 124.675 61.8693 125.569 61.8693C127.069 61.8693 128.442 62.2443 129.686 62.9943C130.93 63.7358 131.927 64.7628 132.677 66.0753C133.427 67.3793 133.802 68.875 133.802 70.5625C133.802 72.1818 133.44 73.6648 132.716 75.0114C131.991 76.3494 130.973 77.4148 129.66 78.2074C128.356 78.9915 126.822 79.375 125.058 79.358ZM125.058 76.5455C126.132 76.5455 127.095 76.277 127.947 75.7401C128.808 75.2031 129.486 74.483 129.98 73.5795C130.483 72.6761 130.734 71.6705 130.734 70.5625C130.734 69.4801 130.491 68.4957 130.005 67.6094C129.528 66.7145 128.868 66.0028 128.024 65.4744C127.189 64.946 126.234 64.6818 125.16 64.6818C124.351 64.6818 123.596 64.8437 122.898 65.1676C122.199 65.483 121.585 65.9176 121.057 66.4716C120.537 67.0256 120.128 67.6605 119.829 68.3764C119.531 69.0838 119.382 69.8295 119.382 70.6136C119.382 71.6534 119.625 72.625 120.111 73.5284C120.605 74.4318 121.278 75.1605 122.13 75.7145C122.991 76.2685 123.967 76.5455 125.058 76.5455ZM147.369 79.358C145.443 79.358 143.803 78.8338 142.448 77.7855C141.092 76.7287 140.057 75.1989 139.341 73.196C138.625 71.1847 138.267 68.7557 138.267 65.9091C138.267 63.0795 138.625 60.6634 139.341 58.6605C140.065 56.6491 141.105 55.1151 142.46 54.0582C143.824 52.9929 145.46 52.4602 147.369 52.4602C149.279 52.4602 150.911 52.9929 152.266 54.0582C153.629 55.1151 154.669 56.6491 155.385 58.6605C156.11 60.6634 156.472 63.0795 156.472 65.9091C156.472 68.7557 156.114 71.1847 155.398 73.196C154.682 75.1989 153.646 76.7287 152.291 77.7855C150.936 78.8338 149.296 79.358 147.369 79.358ZM147.369 76.5455C149.279 76.5455 150.762 75.625 151.818 73.7841C152.875 71.9432 153.404 69.3182 153.404 65.9091C153.404 63.642 153.161 61.7116 152.675 60.1179C152.198 58.5241 151.507 57.3097 150.604 56.4744C149.709 55.6392 148.631 55.2216 147.369 55.2216C145.477 55.2216 143.999 56.1548 142.933 58.0213C141.868 59.8793 141.335 62.5085 141.335 65.9091C141.335 68.1761 141.574 70.1023 142.051 71.6875C142.529 73.2727 143.215 74.4787 144.11 75.3054C145.013 76.1321 146.1 76.5455 147.369 76.5455ZM186.847 74.2955L172.426 59.875L174.369 57.9318L188.79 72.3523L186.847 74.2955ZM174.369 74.2955L172.426 72.3523L186.847 57.9318L188.79 59.875L174.369 74.2955ZM224.64 52.8182V79H221.469V56.142H221.316L214.924 60.3864V57.1648L221.469 52.8182H224.64ZM241.374 52.8182V79H238.204V56.142H238.05L231.658 60.3864V57.1648L238.204 52.8182H241.374ZM257.239 52.4602C258.313 52.4687 259.387 52.6733 260.461 53.0739C261.535 53.4744 262.515 54.1392 263.401 55.0682C264.287 55.9886 264.999 57.2457 265.536 58.8395C266.073 60.4332 266.341 62.4318 266.341 64.8352C266.341 67.1619 266.12 69.2287 265.677 71.0355C265.242 72.8338 264.611 74.3509 263.785 75.5866C262.966 76.8224 261.969 77.7599 260.793 78.3991C259.626 79.0384 258.304 79.358 256.83 79.358C255.364 79.358 254.056 79.0682 252.905 78.4886C251.763 77.9006 250.826 77.0866 250.093 76.0469C249.368 74.9986 248.904 73.7841 248.699 72.4034H251.819C252.1 73.6051 252.658 74.598 253.493 75.3821C254.337 76.1577 255.449 76.5455 256.83 76.5455C258.85 76.5455 260.444 75.6634 261.611 73.8991C262.787 72.1349 263.376 69.642 263.376 66.4205H263.171C262.694 67.1364 262.127 67.7543 261.471 68.2741C260.814 68.794 260.086 69.1946 259.285 69.4759C258.483 69.7571 257.631 69.8977 256.728 69.8977C255.228 69.8977 253.851 69.527 252.599 68.7855C251.354 68.0355 250.357 67.0085 249.607 65.7045C248.866 64.392 248.495 62.892 248.495 61.2045C248.495 59.6023 248.853 58.1364 249.569 56.8068C250.293 55.4687 251.307 54.4034 252.611 53.6108C253.924 52.8182 255.466 52.4347 257.239 52.4602ZM257.239 55.2727C256.165 55.2727 255.198 55.5412 254.337 56.0781C253.485 56.6065 252.807 57.3224 252.304 58.2259C251.81 59.1207 251.563 60.1136 251.563 61.2045C251.563 62.2955 251.802 63.2884 252.279 64.1832C252.765 65.0696 253.425 65.777 254.26 66.3054C255.104 66.8253 256.063 67.0852 257.137 67.0852C257.947 67.0852 258.701 66.9276 259.4 66.6122C260.099 66.2884 260.708 65.8494 261.228 65.2955C261.756 64.733 262.17 64.098 262.468 63.3906C262.766 62.6747 262.915 61.929 262.915 61.1534C262.915 60.1307 262.668 59.1719 262.174 58.277C261.688 57.3821 261.015 56.6577 260.154 56.1037C259.302 55.5497 258.33 55.2727 257.239 55.2727Z" fill="#151414"/>
</svg>
